<?xml version="1.0" encoding="utf-8"?>
<!-- Generator: Adobe Illustrator 18.0.0, SVG Export Plug-In . SVG Version: 6.00 Build 0)  -->
<!DOCTYPE svg PUBLIC "-//W3C//DTD SVG 1.1//EN" "http://www.w3.org/Graphics/SVG/1.1/DTD/svg11.dtd">
<svg version="1.1" id="Layer_1" xmlns="http://www.w3.org/2000/svg" xmlns:xlink="http://www.w3.org/1999/xlink" x="0px" y="0px"
	 width="141.8px" height="141.8px" viewBox="0 0 141.8 141.8" enable-background="new 0 0 141.8 141.8" xml:space="preserve">
<g>
	<path fill="#2077B3" d="M29.2,32.7c7.9-17,28.1-24.3,45.1-16.4s24.3,28.1,16.4,45.1c-0.1,0.2-0.2,0.3-0.2,0.5
		c1.9,0.5,3.9,1.2,5.8,2.1c6.2,2.9,11.1,7.4,14.5,12.9L131,33.3c-7-11.2-17.2-20.6-30.1-26.7C65.4-9.9,23.2,5.5,6.6,40.9
		c-7.4,15.9-8.4,33.2-4.1,48.9L29.2,32.7z"/>
	<path fill="#2077B3" d="M139.2,52l-26.6,57.1c-7.9,17-28.1,24.3-45.1,16.4c-17-7.9-24.3-28.1-16.4-45.1c0.1-0.2,0.2-0.3,0.2-0.5
		c-1.9-0.5-3.9-1.2-5.8-2.1c-6.2-2.9-11.1-7.4-14.5-12.9l-20.3,43.5c7,11.2,17.2,20.6,30.1,26.7c35.5,16.5,77.7,1.2,94.2-34.3
		C142.6,84.9,143.5,67.7,139.2,52z"/>
</g>
<path fill="#2077B3" d="M52.1,63.9c-9.3-4.3-13.3-15.4-9-24.7c4.3-9.3,15.4-13.3,24.7-9s13.3,15.4,9,24.7c-1.8,3.9-4.8,6.8-8.2,8.6
	c-0.6,0.2-1.1,0.5-1.7,0.8C62.3,66.2,56.9,66.2,52.1,63.9z"/>
<path fill="#2077B3" d="M74,111.6c-9.3-4.3-13.3-15.4-9-24.7c1.8-3.8,4.8-6.8,8.2-8.6c0.6-0.2,1.1-0.5,1.7-0.8
	c4.6-1.9,9.9-1.9,14.8,0.4c9.3,4.3,13.3,15.4,9,24.7C94.4,111.9,83.3,115.9,74,111.6z"/>
</svg>
